<?xml version="1.0" encoding="UTF-8" standalone="no"?>
<!DOCTYPE svg PUBLIC "-//W3C//DTD SVG 1.1//EN"
"http://www.w3.org/Graphics/SVG/1.1/DTD/svg11.dtd">
<svg viewBox="0 0 909 1286" version="1.1" xmlns="http://www.w3.org/2000/svg" xmlns:xlink="http://www.w3.org/1999/xlink">
<defs>
<clipPath id="c0"><path d="M12.5,1228V11.2H897.1V1228Z"/></clipPath>
<style type="text/css"><![CDATA[
.g0{
fill: #FFFFFF;
}
.g1{
fill: #C0C0C0;
}
.g2{
fill: none;
stroke: #000000;
stroke-width: 0.733;
stroke-linecap: square;
stroke-linejoin: bevel;
stroke-miterlimit: 2;
}
.g3{
fill: none;
stroke: #000000;
stroke-width: 1.466;
stroke-linecap: square;
stroke-linejoin: bevel;
stroke-miterlimit: 2;
}
.g4{
}
]]></style>
</defs>
<path fill-rule="evenodd" d="M38.3,135.7H344.1v26H38.3v-26Z" class="g0"/>
<path fill-rule="evenodd" d="M398,135.7H685.8v26H398v-26Z" class="g1"/>
<path fill-rule="evenodd" d="M121.2,176h73.3v15H121.2V176Z" class="g0"/>
<path fill-rule="evenodd" d="M194.2,176h85v15h-85V176Z" class="g0"/>
<path fill-rule="evenodd" d="M278.9,176h65.2v15H278.9V176Z" class="g0"/>
<path fill-rule="evenodd" d="M343.8,176h54.6v15H343.8V176Z" class="g0"/>
<path fill-rule="evenodd" d="M398,176h63.1v15H398V176Z" class="g0"/>
<path fill-rule="evenodd" d="M460.7,176h89.8v15H460.7V176Z" class="g0"/>
<path fill-rule="evenodd" d="M550.2,176h22.4v15H550.2V176Z" class="g0"/>
<path fill-rule="evenodd" d="M121.2,190.7h73.3v15H121.2v-15Z" class="g0"/>
<path fill-rule="evenodd" d="M194.2,190.7h85v15h-85v-15Z" class="g0"/>
<path fill-rule="evenodd" d="M278.9,190.7h65.2v15H278.9v-15Z" class="g0"/>
<path fill-rule="evenodd" d="M343.8,190.7h54.6v15H343.8v-15Z" class="g0"/>
<path fill-rule="evenodd" d="M398,190.7h63.1v15H398v-15Z" class="g0"/>
<path fill-rule="evenodd" d="M460.7,190.7h89.8v15H460.7v-15Z" class="g0"/>
<path fill-rule="evenodd" d="M550.2,190.7h22.4v15H550.2v-15Z" class="g0"/>
<path fill-rule="evenodd" d="M121.2,205.3h73.3v15.1H121.2V205.3Z" class="g0"/>
<path fill-rule="evenodd" d="M194.2,205.3h85v15.1h-85V205.3Z" class="g0"/>
<path fill-rule="evenodd" d="M278.9,205.3h65.2v15.1H278.9V205.3Z" class="g0"/>
<path fill-rule="evenodd" d="M343.8,205.3h54.6v15.1H343.8V205.3Z" class="g0"/>
<path fill-rule="evenodd" d="M398,205.3h63.1v15.1H398V205.3Z" class="g0"/>
<path fill-rule="evenodd" d="M121.2,220h73.3v15H121.2V220Z" class="g0"/>
<path fill-rule="evenodd" d="M194.2,220h85v15h-85V220Z" class="g0"/>
<path fill-rule="evenodd" d="M278.9,220h65.2v15H278.9V220Z" class="g0"/>
<path fill-rule="evenodd" d="M343.8,220h54.6v15H343.8V220Z" class="g0"/>
<path fill-rule="evenodd" d="M398,220h63.1v15H398V220Z" class="g0"/>
<path fill-rule="evenodd" d="M121.2,234.7h73.3v17.6H121.2V234.7Z" class="g0"/>
<path fill-rule="evenodd" d="M194.2,234.7h85v17.6h-85V234.7Z" class="g0"/>
<path fill-rule="evenodd" d="M278.9,234.7h65.2v17.6H278.9V234.7Z" class="g0"/>
<path fill-rule="evenodd" d="M343.8,234.7h54.6v17.6H343.8V234.7Z" class="g0"/>
<path fill-rule="evenodd" d="M398,234.7h63.1v17.6H398V234.7Z" class="g0"/>
<path fill-rule="evenodd" d="M121.2,251.9h73.3v15H121.2v-15Z" class="g0"/>
<path fill-rule="evenodd" d="M194.2,251.9h85v15h-85v-15Z" class="g0"/>
<path fill-rule="evenodd" d="M278.9,251.9h65.2v15H278.9v-15Z" class="g0"/>
<path fill-rule="evenodd" d="M343.8,251.9h54.6v15H343.8v-15Z" class="g0"/>
<path fill-rule="evenodd" d="M398,251.9h63.1v15H398v-15Z" class="g0"/>
<path fill-rule="evenodd" d="M38.3,281.2h83.2v17.6H38.3V281.2Z" class="g0"/>
<path fill-rule="evenodd" d="M121.2,281.2h73.3v17.6H121.2V281.2Z" class="g0"/>
<path fill-rule="evenodd" d="M194.2,281.2h85v17.6h-85V281.2Z" class="g0"/>
<path fill-rule="evenodd" d="M278.9,281.2h65.2v17.6H278.9V281.2Z" class="g0"/>
<path fill-rule="evenodd" d="M343.8,281.2h54.6v17.6H343.8V281.2Z" class="g0"/>
<path fill-rule="evenodd" d="M398,281.2h63.1v17.6H398V281.2Z" class="g0"/>
<path fill-rule="evenodd" d="M38.3,298.5h83.2v17.6H38.3V298.5Z" class="g0"/>
<path fill-rule="evenodd" d="M121.2,298.5h73.3v17.6H121.2V298.5Z" class="g0"/>
<path fill-rule="evenodd" d="M194.2,298.5h85v17.6h-85V298.5Z" class="g0"/>
<path fill-rule="evenodd" d="M278.9,298.5h65.2v17.6H278.9V298.5Z" class="g0"/>
<path fill-rule="evenodd" d="M343.8,298.5h54.6v17.6H343.8V298.5Z" class="g0"/>
<path fill-rule="evenodd" d="M398,298.5h63.1v17.6H398V298.5Z" class="g0"/>
<path fill-rule="evenodd" d="M38.3,315.7h83.2v15.8H38.3V315.7Z" class="g0"/>
<path fill-rule="evenodd" d="M121.2,315.7h73.3v15.8H121.2V315.7Z" class="g0"/>
<path fill-rule="evenodd" d="M194.2,315.7h85v15.8h-85V315.7Z" class="g0"/>
<path fill-rule="evenodd" d="M278.9,315.7h65.2v15.8H278.9V315.7Z" class="g0"/>
<path fill-rule="evenodd" d="M343.8,315.7h54.6v15.8H343.8V315.7Z" class="g0"/>
<path fill-rule="evenodd" d="M398,315.7h63.1v15.8H398V315.7Z" class="g0"/>
<path fill-rule="evenodd" d="M38.3,331.1h83.2v15.8H38.3V331.1Z" class="g0"/>
<path fill-rule="evenodd" d="M121.2,331.1h73.3v15.8H121.2V331.1Z" class="g0"/>
<path fill-rule="evenodd" d="M194.2,331.1h85v15.8h-85V331.1Z" class="g0"/>
<path fill-rule="evenodd" d="M278.9,331.1h65.2v15.8H278.9V331.1Z" class="g0"/>
<path fill-rule="evenodd" d="M343.8,331.1h54.6v15.8H343.8V331.1Z" class="g0"/>
<path fill-rule="evenodd" d="M398,331.1h63.1v15.8H398V331.1Z" class="g0"/>
<path fill-rule="evenodd" d="M121.2,346.5h73.3v17.6H121.2V346.5Z" class="g0"/>
<path fill-rule="evenodd" d="M194.2,346.5h85v17.6h-85V346.5Z" class="g0"/>
<path fill-rule="evenodd" d="M278.9,346.5h65.2v17.6H278.9V346.5Z" class="g0"/>
<path fill-rule="evenodd" d="M343.8,346.5h54.6v17.6H343.8V346.5Z" class="g0"/>
<path fill-rule="evenodd" d="M398,346.5h63.1v17.6H398V346.5Z" class="g0"/>
<path fill-rule="evenodd" d="M38.3,363.7h83.2v17.6H38.3V363.7Z" class="g0"/>
<path fill-rule="evenodd" d="M121.2,363.7h73.3v17.6H121.2V363.7Z" class="g0"/>
<path fill-rule="evenodd" d="M194.2,363.7h85v17.6h-85V363.7Z" class="g0"/>
<path fill-rule="evenodd" d="M278.9,363.7h65.2v17.6H278.9V363.7Z" class="g0"/>
<path fill-rule="evenodd" d="M343.8,363.7h54.6v17.6H343.8V363.7Z" class="g0"/>
<path fill-rule="evenodd" d="M398,363.7h63.1v17.6H398V363.7Z" class="g0"/>
<path fill-rule="evenodd" d="M38.3,393.4h83.2V411H38.3V393.4Z" class="g0"/>
<path fill-rule="evenodd" d="M121.2,393.4h73.3V411H121.2V393.4Z" class="g0"/>
<path fill-rule="evenodd" d="M194.2,393.4h85V411h-85V393.4Z" class="g0"/>
<path fill-rule="evenodd" d="M278.9,393.4h65.2V411H278.9V393.4Z" class="g0"/>
<path fill-rule="evenodd" d="M343.8,393.4h54.6V411H343.8V393.4Z" class="g0"/>
<path fill-rule="evenodd" d="M398,393.4h63.1V411H398V393.4Z" class="g0"/>
<path fill-rule="evenodd" d="M460.7,393.4h89.8V411H460.7V393.4Z" class="g0"/>
<path fill-rule="evenodd" d="M550.2,393.4h22.4V411H550.2V393.4Z" class="g0"/>
<path fill-rule="evenodd" d="M572.2,393.4H685.8V411H572.2V393.4Z" class="g0"/>
<path fill-rule="evenodd" d="M685.5,393.4H779V411H685.5V393.4Z" class="g0"/>
<path fill-rule="evenodd" d="M778.6,393.4h52.8V411H778.6V393.4Z" class="g0"/>
<path fill-rule="evenodd" d="M831.1,393.4h63V411h-63V393.4Z" class="g0"/>
<path fill-rule="evenodd" d="M38.3,410.7h83.2v17.6H38.3V410.7Z" class="g0"/>
<path fill-rule="evenodd" d="M121.2,410.7h73.3v17.6H121.2V410.7Z" class="g0"/>
<path fill-rule="evenodd" d="M194.2,410.7h85v17.6h-85V410.7Z" class="g0"/>
<path fill-rule="evenodd" d="M278.9,410.7h65.2v17.6H278.9V410.7Z" class="g0"/>
<path fill-rule="evenodd" d="M343.8,410.7h54.6v17.6H343.8V410.7Z" class="g0"/>
<path fill-rule="evenodd" d="M398,410.7h63.1v17.6H398V410.7Z" class="g0"/>
<path fill-rule="evenodd" d="M460.7,410.7h89.8v17.6H460.7V410.7Z" class="g0"/>
<path fill-rule="evenodd" d="M550.2,410.7h22.4v17.6H550.2V410.7Z" class="g0"/>
<path fill-rule="evenodd" d="M572.2,410.7H685.8v17.6H572.2V410.7Z" class="g0"/>
<path fill-rule="evenodd" d="M685.5,410.7H779v17.6H685.5V410.7Z" class="g0"/>
<path fill-rule="evenodd" d="M778.6,410.7h52.8v17.6H778.6V410.7Z" class="g0"/>
<path fill-rule="evenodd" d="M831.1,410.7h63v17.6h-63V410.7Z" class="g0"/>
<path fill-rule="evenodd" d="M38.3,427.9h83.2v17.6H38.3V427.9Z" class="g0"/>
<path fill-rule="evenodd" d="M121.2,427.9h73.3v17.6H121.2V427.9Z" class="g0"/>
<path fill-rule="evenodd" d="M194.2,427.9h85v17.6h-85V427.9Z" class="g0"/>
<path fill-rule="evenodd" d="M278.9,427.9h65.2v17.6H278.9V427.9Z" class="g0"/>
<path fill-rule="evenodd" d="M343.8,427.9h54.6v17.6H343.8V427.9Z" class="g0"/>
<path fill-rule="evenodd" d="M398,427.9h63.1v17.6H398V427.9Z" class="g0"/>
<path fill-rule="evenodd" d="M460.7,427.9h89.8v17.6H460.7V427.9Z" class="g0"/>
<path fill-rule="evenodd" d="M550.2,427.9h22.4v17.6H550.2V427.9Z" class="g0"/>
<path fill-rule="evenodd" d="M572.2,427.9H685.8v17.6H572.2V427.9Z" class="g0"/>
<path fill-rule="evenodd" d="M685.5,427.9H779v17.6H685.5V427.9Z" class="g0"/>
<path fill-rule="evenodd" d="M778.6,427.9h52.8v17.6H778.6V427.9Z" class="g0"/>
<path fill-rule="evenodd" d="M831.1,427.9h63v17.6h-63V427.9Z" class="g0"/>
<path fill-rule="evenodd" d="M121.2,445.1h73.3v17.6H121.2V445.1Z" class="g0"/>
<path fill-rule="evenodd" d="M194.2,445.1h85v17.6h-85V445.1Z" class="g0"/>
<path fill-rule="evenodd" d="M278.9,445.1h65.2v17.6H278.9V445.1Z" class="g0"/>
<path fill-rule="evenodd" d="M343.8,445.1h54.6v17.6H343.8V445.1Z" class="g0"/>
<path fill-rule="evenodd" d="M398,445.1h63.1v17.6H398V445.1Z" class="g0"/>
<path fill-rule="evenodd" d="M460.7,445.1h89.8v17.6H460.7V445.1Z" class="g0"/>
<path fill-rule="evenodd" d="M550.2,445.1h22.4v17.6H550.2V445.1Z" class="g0"/>
<path fill-rule="evenodd" d="M572.2,445.1H685.8v17.6H572.2V445.1Z" class="g0"/>
<path fill-rule="evenodd" d="M685.5,445.1H779v17.6H685.5V445.1Z" class="g0"/>
<path fill-rule="evenodd" d="M778.6,445.1h52.8v17.6H778.6V445.1Z" class="g0"/>
<path fill-rule="evenodd" d="M831.1,445.1h63v17.6h-63V445.1Z" class="g0"/>
<path fill-rule="evenodd" d="M38.3,462.4h83.2v14.3H38.3V462.4Z" class="g0"/>
<path fill-rule="evenodd" d="M121.2,462.4h73.3v14.3H121.2V462.4Z" class="g0"/>
<path fill-rule="evenodd" d="M194.2,462.4h85v14.3h-85V462.4Z" class="g0"/>
<path fill-rule="evenodd" d="M278.9,462.4h65.2v14.3H278.9V462.4Z" class="g0"/>
<path fill-rule="evenodd" d="M343.8,462.4h54.6v14.3H343.8V462.4Z" class="g0"/>
<path fill-rule="evenodd" d="M398,462.4h63.1v14.3H398V462.4Z" class="g0"/>
<path fill-rule="evenodd" d="M460.7,462.4h89.8v14.3H460.7V462.4Z" class="g0"/>
<path fill-rule="evenodd" d="M550.2,462.4h22.4v14.3H550.2V462.4Z" class="g0"/>
<path fill-rule="evenodd" d="M572.2,462.4H685.8v14.3H572.2V462.4Z" class="g0"/>
<path fill-rule="evenodd" d="M685.5,462.4H779v14.3H685.5V462.4Z" class="g0"/>
<path fill-rule="evenodd" d="M778.6,462.4h52.8v14.3H778.6V462.4Z" class="g0"/>
<path fill-rule="evenodd" d="M831.1,462.4h63v14.3h-63V462.4Z" class="g0"/>
<path fill-rule="evenodd" d="M38.3,538.6H194.5v25.3H38.3V538.6Z" class="g0"/>
<path fill-rule="evenodd" d="M194.2,538.6h85v25.3h-85V538.6Z" class="g0"/>
<path fill-rule="evenodd" d="M460.7,538.6H685.8v25.3H460.7V538.6Z" class="g0"/>
<path fill-rule="evenodd" d="M685.5,538.6H894.1v25.3H685.5V538.6Z" class="g0"/>
<path fill-rule="evenodd" d="M38.3,563.6h83.2v12.8H38.3V563.6Z" class="g0"/>
<path fill-rule="evenodd" d="M121.2,563.6h73.3v12.8H121.2V563.6Z" class="g0"/>
<path fill-rule="evenodd" d="M194.2,563.6h85v12.8h-85V563.6Z" class="g0"/>
<path fill-rule="evenodd" d="M278.9,563.6H461.1v12.8H278.9V563.6Z" class="g0"/>
<path fill-rule="evenodd" d="M38.3,576H194.5v26.8H38.3V576Z" class="g0"/>
<path fill-rule="evenodd" d="M194.2,576h85v26.8h-85V576Z" class="g0"/>
<path fill-rule="evenodd" d="M278.9,576H461.1v26.8H278.9V576Z" class="g0"/>
<path fill-rule="evenodd" d="M460.7,576H685.8v26.8H460.7V576Z" class="g0"/>
<path fill-rule="evenodd" d="M685.5,576H894.1v26.8H685.5V576Z" class="g0"/>
<path fill-rule="evenodd" d="M38.3,602.4H279.2v15.1H38.3V602.4Z" class="g0"/>
<path fill-rule="evenodd" d="M278.9,602.4H461.1v15.1H278.9V602.4Z" class="g0"/>
<path fill-rule="evenodd" d="M460.7,602.4h89.8v15.1H460.7V602.4Z" class="g0"/>
<path fill-rule="evenodd" d="M550.2,602.4h22.4v15.1H550.2V602.4Z" class="g0"/>
<path fill-rule="evenodd" d="M572.2,602.4H685.8v15.1H572.2V602.4Z" class="g0"/>
<path fill-rule="evenodd" d="M685.5,602.4H779v15.1H685.5V602.4Z" class="g0"/>
<path fill-rule="evenodd" d="M778.6,602.4h52.8v15.1H778.6V602.4Z" class="g0"/>
<path fill-rule="evenodd" d="M831.1,602.4h63v15.1h-63V602.4Z" class="g0"/>
<path fill-rule="evenodd" d="M38.3,617.1H279.2v25.3H38.3V617.1Z" class="g0"/>
<path fill-rule="evenodd" d="M278.9,617.1H461.1v25.3H278.9V617.1Z" class="g0"/>
<path fill-rule="evenodd" d="M460.7,617.1h89.8v12.8H460.7V617.1Z" class="g0"/>
<path fill-rule="evenodd" d="M550.2,617.1h22.4v12.8H550.2V617.1Z" class="g0"/>
<path fill-rule="evenodd" d="M572.2,617.1H685.8v12.8H572.2V617.1Z" class="g0"/>
<path fill-rule="evenodd" d="M685.5,617.1H779v12.8H685.5V617.1Z" class="g0"/>
<path fill-rule="evenodd" d="M778.6,617.1h52.8v12.8H778.6V617.1Z" class="g0"/>
<path fill-rule="evenodd" d="M831.1,617.1h63v12.8h-63V617.1Z" class="g0"/>
<path fill-rule="evenodd" d="M460.7,629.6h89.8v12.8H460.7V629.6Z" class="g0"/>
<path fill-rule="evenodd" d="M550.2,629.6h22.4v12.8H550.2V629.6Z" class="g0"/>
<path fill-rule="evenodd" d="M572.2,629.6H685.8v12.8H572.2V629.6Z" class="g0"/>
<path fill-rule="evenodd" d="M685.5,629.6H779v12.8H685.5V629.6Z" class="g0"/>
<path fill-rule="evenodd" d="M778.6,629.6h52.8v12.8H778.6V629.6Z" class="g0"/>
<path fill-rule="evenodd" d="M831.1,629.6h63v12.8h-63V629.6Z" class="g0"/>
<path fill-rule="evenodd" d="M38.3,642H279.2v12.9H38.3V642Z" class="g0"/>
<path fill-rule="evenodd" d="M278.9,642H685.8v12.9H278.9V642Z" class="g0"/>
<path fill-rule="evenodd" d="M685.5,642H779v12.9H685.5V642Z" class="g0"/>
<path fill-rule="evenodd" d="M778.6,642H894.1v12.9H778.6V642Z" class="g0"/>
<path fill-rule="evenodd" d="M38.3,654.5h83.2v12.8H38.3V654.5Z" class="g0"/>
<path fill-rule="evenodd" d="M121.2,654.5h73.3v12.8H121.2V654.5Z" class="g0"/>
<path fill-rule="evenodd" d="M194.2,654.5h85v12.8h-85V654.5Z" class="g0"/>
<path fill-rule="evenodd" d="M278.9,654.5h65.2v12.8H278.9V654.5Z" class="g0"/>
<path fill-rule="evenodd" d="M343.8,654.5h54.6v12.8H343.8V654.5Z" class="g0"/>
<path fill-rule="evenodd" d="M398,654.5h63.1v12.8H398V654.5Z" class="g0"/>
<path fill-rule="evenodd" d="M460.7,654.5h89.8v12.8H460.7V654.5Z" class="g0"/>
<path fill-rule="evenodd" d="M550.2,654.5h22.4v12.8H550.2V654.5Z" class="g0"/>
<path fill-rule="evenodd" d="M572.2,654.5H685.8v12.8H572.2V654.5Z" class="g0"/>
<path fill-rule="evenodd" d="M685.5,654.5H779v12.8H685.5V654.5Z" class="g0"/>
<path fill-rule="evenodd" d="M778.6,654.5h52.8v12.8H778.6V654.5Z" class="g0"/>
<path fill-rule="evenodd" d="M831.1,654.5h63v12.8h-63V654.5Z" class="g0"/>
<path fill-rule="evenodd" d="M38.3,667h83.2v15H38.3V667Z" class="g0"/>
<path fill-rule="evenodd" d="M121.2,667h73.3v15H121.2V667Z" class="g0"/>
<path fill-rule="evenodd" d="M194.2,667h85v15h-85V667Z" class="g0"/>
<path fill-rule="evenodd" d="M278.9,667h65.2v15H278.9V667Z" class="g0"/>
<path fill-rule="evenodd" d="M343.8,667h54.6v15H343.8V667Z" class="g0"/>
<path fill-rule="evenodd" d="M398,667h63.1v15H398V667Z" class="g0"/>
<path fill-rule="evenodd" d="M460.7,667h89.8v15H460.7V667Z" class="g0"/>
<path fill-rule="evenodd" d="M550.2,667h22.4v15H550.2V667Z" class="g0"/>
<path fill-rule="evenodd" d="M572.2,667H685.8v15H572.2V667Z" class="g0"/>
<path fill-rule="evenodd" d="M685.5,667H779v15H685.5V667Z" class="g0"/>
<path fill-rule="evenodd" d="M778.6,667h52.8v15H778.6V667Z" class="g0"/>
<path fill-rule="evenodd" d="M831.1,667h63v15h-63V667Z" class="g0"/>
<path fill-rule="evenodd" d="M121.2,681.6h73.3v15.8H121.2V681.6Z" class="g0"/>
<path fill-rule="evenodd" d="M194.2,681.6h85v15.8h-85V681.6Z" class="g0"/>
<path fill-rule="evenodd" d="M343.8,681.6h54.6v15.8H343.8V681.6Z" class="g0"/>
<path fill-rule="evenodd" d="M398,681.6h63.1v15.8H398V681.6Z" class="g0"/>
<path fill-rule="evenodd" d="M460.7,681.6h89.8v15.8H460.7V681.6Z" class="g0"/>
<path fill-rule="evenodd" d="M550.2,681.6h22.4v15.8H550.2V681.6Z" class="g0"/>
<path fill-rule="evenodd" d="M572.2,681.6H685.8v15.8H572.2V681.6Z" class="g0"/>
<path fill-rule="evenodd" d="M685.5,681.6H779v15.8H685.5V681.6Z" class="g0"/>
<path fill-rule="evenodd" d="M778.6,681.6h52.8v15.8H778.6V681.6Z" class="g0"/>
<path fill-rule="evenodd" d="M831.1,681.6h63v15.8h-63V681.6Z" class="g0"/>
<path fill-rule="evenodd" d="M121.2,697h73.3v15.8H121.2V697Z" class="g0"/>
<path fill-rule="evenodd" d="M194.2,697h85v15.8h-85V697Z" class="g0"/>
<path fill-rule="evenodd" d="M343.8,697h54.6v15.8H343.8V697Z" class="g0"/>
<path fill-rule="evenodd" d="M398,697h63.1v15.8H398V697Z" class="g0"/>
<path fill-rule="evenodd" d="M460.7,697h89.8v15.8H460.7V697Z" class="g0"/>
<path fill-rule="evenodd" d="M550.2,697h22.4v15.8H550.2V697Z" class="g0"/>
<path fill-rule="evenodd" d="M572.2,697H685.8v15.8H572.2V697Z" class="g0"/>
<path fill-rule="evenodd" d="M685.5,697H779v15.8H685.5V697Z" class="g0"/>
<path fill-rule="evenodd" d="M778.6,697h52.8v15.8H778.6V697Z" class="g0"/>
<path fill-rule="evenodd" d="M831.1,697h63v15.8h-63V697Z" class="g0"/>
<path fill-rule="evenodd" d="M38.3,712.4h83.2v15.1H38.3V712.4Z" class="g0"/>
<path fill-rule="evenodd" d="M121.2,712.4h73.3v15.1H121.2V712.4Z" class="g0"/>
<path fill-rule="evenodd" d="M194.2,712.4h85v15.1h-85V712.4Z" class="g0"/>
<path fill-rule="evenodd" d="M278.9,712.4h65.2v15.1H278.9V712.4Z" class="g0"/>
<path fill-rule="evenodd" d="M343.8,712.4h54.6v15.1H343.8V712.4Z" class="g0"/>
<path fill-rule="evenodd" d="M398,712.4h63.1v15.1H398V712.4Z" class="g0"/>
<path fill-rule="evenodd" d="M460.7,712.4h89.8v15.1H460.7V712.4Z" class="g0"/>
<path fill-rule="evenodd" d="M550.2,712.4h22.4v15.1H550.2V712.4Z" class="g0"/>
<path fill-rule="evenodd" d="M572.2,712.4H685.8v15.1H572.2V712.4Z" class="g0"/>
<path fill-rule="evenodd" d="M685.5,712.4H779v15.1H685.5V712.4Z" class="g0"/>
<path fill-rule="evenodd" d="M778.6,712.4h52.8v15.1H778.6V712.4Z" class="g0"/>
<path fill-rule="evenodd" d="M831.1,712.4h63v15.1h-63V712.4Z" class="g0"/>
<path fill-rule="evenodd" d="M38.3,727.1h83.2v15H38.3v-15Z" class="g0"/>
<path fill-rule="evenodd" d="M121.2,727.1h73.3v15H121.2v-15Z" class="g0"/>
<path fill-rule="evenodd" d="M194.2,727.1h85v15h-85v-15Z" class="g0"/>
<path fill-rule="evenodd" d="M278.9,727.1H461.1v15H278.9v-15Z" class="g0"/>
<path fill-rule="evenodd" d="M460.7,727.1h89.8v15H460.7v-15Z" class="g0"/>
<path fill-rule="evenodd" d="M550.2,727.1h22.4v15H550.2v-15Z" class="g0"/>
<path fill-rule="evenodd" d="M572.2,727.1H685.8v15H572.2v-15Z" class="g0"/>
<path fill-rule="evenodd" d="M685.5,727.1H779v15H685.5v-15Z" class="g0"/>
<path fill-rule="evenodd" d="M778.6,727.1h52.8v15H778.6v-15Z" class="g0"/>
<path fill-rule="evenodd" d="M831.1,727.1h63v15h-63v-15Z" class="g0"/>
<path fill-rule="evenodd" d="M38.3,741.8h83.2v15H38.3v-15Z" class="g0"/>
<path fill-rule="evenodd" d="M121.2,741.8h73.3v15H121.2v-15Z" class="g0"/>
<path fill-rule="evenodd" d="M194.2,741.8h85v15h-85v-15Z" class="g0"/>
<path fill-rule="evenodd" d="M278.9,741.8H461.1v15H278.9v-15Z" class="g0"/>
<path fill-rule="evenodd" d="M460.7,741.8h89.8v15H460.7v-15Z" class="g0"/>
<path fill-rule="evenodd" d="M550.2,741.8h22.4v15H550.2v-15Z" class="g0"/>
<path fill-rule="evenodd" d="M572.2,741.8H685.8v15H572.2v-15Z" class="g0"/>
<path fill-rule="evenodd" d="M685.5,741.8H779v15H685.5v-15Z" class="g0"/>
<path fill-rule="evenodd" d="M778.6,741.8h52.8v15H778.6v-15Z" class="g0"/>
<path fill-rule="evenodd" d="M831.1,741.8h63v15h-63v-15Z" class="g0"/>
<path fill-rule="evenodd" d="M343.8,756.4h54.6v15.1H343.8V756.4Z" class="g0"/>
<path fill-rule="evenodd" d="M398,756.4h63.1v15.1H398V756.4Z" class="g0"/>
<path fill-rule="evenodd" d="M278.9,771.1h65.2v15H278.9v-15Z" class="g0"/>
<path fill-rule="evenodd" d="M343.8,771.1h54.6v15H343.8v-15Z" class="g0"/>
<path fill-rule="evenodd" d="M398,771.1h63.1v15H398v-15Z" class="g0"/>
<path fill-rule="evenodd" d="M460.7,771.1h89.8v15H460.7v-15Z" class="g0"/>
<path fill-rule="evenodd" d="M550.2,771.1h22.4v15H550.2v-15Z" class="g0"/>
<path fill-rule="evenodd" d="M572.2,771.1H685.8v15H572.2v-15Z" class="g0"/>
<path fill-rule="evenodd" d="M685.5,771.1H779v15H685.5v-15Z" class="g0"/>
<path fill-rule="evenodd" d="M831.1,771.1h63v15h-63v-15Z" class="g0"/>
<path fill-rule="evenodd" d="M278.9,785.8h65.2v15H278.9v-15Z" class="g0"/>
<path fill-rule="evenodd" d="M398,785.8h63.1v15H398v-15Z" class="g0"/>
<path fill-rule="evenodd" d="M460.7,785.8h89.8v15H460.7v-15Z" class="g0"/>
<path fill-rule="evenodd" d="M550.2,785.8h22.4v15H550.2v-15Z" class="g0"/>
<path fill-rule="evenodd" d="M572.2,785.8H685.8v15H572.2v-15Z" class="g0"/>
<path fill-rule="evenodd" d="M685.5,785.8H779v15H685.5v-15Z" class="g0"/>
<path fill-rule="evenodd" d="M778.6,785.8h52.8v15H778.6v-15Z" class="g0"/>
<path fill-rule="evenodd" d="M831.1,785.8h63v15h-63v-15Z" class="g0"/>
<path fill-rule="evenodd" d="M278.9,800.4h65.2v15.1H278.9V800.4Z" class="g0"/>
<path fill-rule="evenodd" d="M343.8,800.4h54.6v15.1H343.8V800.4Z" class="g0"/>
<path fill-rule="evenodd" d="M398,800.4h63.1v15.1H398V800.4Z" class="g0"/>
<path fill-rule="evenodd" d="M460.7,800.4h89.8v15.1H460.7V800.4Z" class="g0"/>
<path fill-rule="evenodd" d="M550.2,800.4h22.4v15.1H550.2V800.4Z" class="g0"/>
<path fill-rule="evenodd" d="M572.2,800.4H685.8v15.1H572.2V800.4Z" class="g0"/>
<path fill-rule="evenodd" d="M685.5,800.4H779v15.1H685.5V800.4Z" class="g0"/>
<path fill-rule="evenodd" d="M778.6,800.4h52.8v15.1H778.6V800.4Z" class="g0"/>
<path fill-rule="evenodd" d="M831.1,800.4h63v15.1h-63V800.4Z" class="g0"/>
<path fill-rule="evenodd" d="M278.9,815.1h65.2v13.6H278.9V815.1Z" class="g0"/>
<path fill-rule="evenodd" d="M343.8,815.1h54.6v13.6H343.8V815.1Z" class="g0"/>
<path fill-rule="evenodd" d="M398,815.1h63.1v13.6H398V815.1Z" class="g0"/>
<path fill-rule="evenodd" d="M460.7,815.1h89.8v13.6H460.7V815.1Z" class="g0"/>
<path fill-rule="evenodd" d="M550.2,815.1h22.4v13.6H550.2V815.1Z" class="g0"/>
<path fill-rule="evenodd" d="M572.2,815.1H685.8v13.6H572.2V815.1Z" class="g0"/>
<path fill-rule="evenodd" d="M685.5,815.1H779v13.6H685.5V815.1Z" class="g0"/>
<path fill-rule="evenodd" d="M778.6,815.1h52.8v13.6H778.6V815.1Z" class="g0"/>
<path fill-rule="evenodd" d="M831.1,815.1h63v13.6h-63V815.1Z" class="g0"/>
<path fill-rule="evenodd" d="M278.9,828.3h65.2v15H278.9v-15Z" class="g0"/>
<path fill-rule="evenodd" d="M343.8,828.3h54.6v15H343.8v-15Z" class="g0"/>
<path fill-rule="evenodd" d="M398,828.3h63.1v15H398v-15Z" class="g0"/>
<path fill-rule="evenodd" d="M460.7,828.3h89.8v15H460.7v-15Z" class="g0"/>
<path fill-rule="evenodd" d="M550.2,828.3h22.4v15H550.2v-15Z" class="g0"/>
<path fill-rule="evenodd" d="M572.2,828.3H685.8v15H572.2v-15Z" class="g0"/>
<path fill-rule="evenodd" d="M685.5,828.3H779v15H685.5v-15Z" class="g0"/>
<path fill-rule="evenodd" d="M778.6,828.3h52.8v15H778.6v-15Z" class="g0"/>
<path fill-rule="evenodd" d="M831.1,828.3h63v15h-63v-15Z" class="g0"/>
<path fill-rule="evenodd" d="M278.9,843h65.2v15H278.9V843Z" class="g0"/>
<path fill-rule="evenodd" d="M343.8,843h54.6v15H343.8V843Z" class="g0"/>
<path fill-rule="evenodd" d="M398,843h63.1v15H398V843Z" class="g0"/>
<path fill-rule="evenodd" d="M460.7,843h89.8v15H460.7V843Z" class="g0"/>
<path fill-rule="evenodd" d="M550.2,843h22.4v15H550.2V843Z" class="g0"/>
<path fill-rule="evenodd" d="M572.2,843H685.8v15H572.2V843Z" class="g0"/>
<path fill-rule="evenodd" d="M685.5,843H779v15H685.5V843Z" class="g0"/>
<path fill-rule="evenodd" d="M778.6,843h52.8v15H778.6V843Z" class="g0"/>
<path fill-rule="evenodd" d="M831.1,843h63v15h-63V843Z" class="g0"/>
<path fill-rule="evenodd" d="M398,857.6h63.1v15.1H398V857.6Z" class="g0"/>
<path fill-rule="evenodd" d="M460.7,857.6h89.8v15.1H460.7V857.6Z" class="g0"/>
<path fill-rule="evenodd" d="M550.2,857.6h22.4v15.1H550.2V857.6Z" class="g0"/>
<path fill-rule="evenodd" d="M572.2,857.6H685.8v15.1H572.2V857.6Z" class="g0"/>
<path fill-rule="evenodd" d="M685.5,857.6H779v15.1H685.5V857.6Z" class="g0"/>
<path fill-rule="evenodd" d="M778.6,857.6h52.8v15.1H778.6V857.6Z" class="g0"/>
<path fill-rule="evenodd" d="M831.1,857.6h63v15.1h-63V857.6Z" class="g0"/>
<path fill-rule="evenodd" d="M278.9,872.3h65.2v15H278.9v-15Z" class="g0"/>
<path fill-rule="evenodd" d="M343.8,872.3h54.6v15H343.8v-15Z" class="g0"/>
<path fill-rule="evenodd" d="M398,872.3h63.1v15H398v-15Z" class="g0"/>
<path fill-rule="evenodd" d="M460.7,872.3h89.8v15H460.7v-15Z" class="g0"/>
<path fill-rule="evenodd" d="M550.2,872.3h22.4v15H550.2v-15Z" class="g0"/>
<path fill-rule="evenodd" d="M572.2,872.3H685.8v15H572.2v-15Z" class="g0"/>
<path fill-rule="evenodd" d="M685.5,872.3H779v15H685.5v-15Z" class="g0"/>
<path fill-rule="evenodd" d="M778.6,872.3h52.8v15H778.6v-15Z" class="g0"/>
<path fill-rule="evenodd" d="M831.1,872.3h63v15h-63v-15Z" class="g0"/>
<path fill-rule="evenodd" d="M278.9,887h65.2v15H278.9V887Z" class="g0"/>
<path fill-rule="evenodd" d="M343.8,887h54.6v15H343.8V887Z" class="g0"/>
<path fill-rule="evenodd" d="M398,887h63.1v15H398V887Z" class="g0"/>
<path fill-rule="evenodd" d="M460.7,887h89.8v15H460.7V887Z" class="g0"/>
<path fill-rule="evenodd" d="M550.2,887h22.4v15H550.2V887Z" class="g0"/>
<path fill-rule="evenodd" d="M572.2,887H685.8v15H572.2V887Z" class="g0"/>
<path fill-rule="evenodd" d="M685.5,887H779v15H685.5V887Z" class="g0"/>
<path fill-rule="evenodd" d="M778.6,887h52.8v15H778.6V887Z" class="g0"/>
<path fill-rule="evenodd" d="M831.1,887h63v15h-63V887Z" class="g0"/>
<path fill-rule="evenodd" d="M278.9,901.6h65.2v15.1H278.9V901.6Z" class="g0"/>
<path fill-rule="evenodd" d="M343.8,901.6h54.6v15.1H343.8V901.6Z" class="g0"/>
<path fill-rule="evenodd" d="M398,901.6h63.1v15.1H398V901.6Z" class="g0"/>
<path fill-rule="evenodd" d="M460.7,901.6h89.8v15.1H460.7V901.6Z" class="g0"/>
<path fill-rule="evenodd" d="M550.2,901.6h22.4v15.1H550.2V901.6Z" class="g0"/>
<path fill-rule="evenodd" d="M572.2,901.6H685.8v15.1H572.2V901.6Z" class="g0"/>
<path fill-rule="evenodd" d="M685.5,901.6H779v15.1H685.5V901.6Z" class="g0"/>
<path fill-rule="evenodd" d="M778.6,901.6h52.8v15.1H778.6V901.6Z" class="g0"/>
<path fill-rule="evenodd" d="M831.1,901.6h63v15.1h-63V901.6Z" class="g0"/>
<path fill-rule="evenodd" d="M278.9,916.3h65.2v15H278.9v-15Z" class="g0"/>
<path fill-rule="evenodd" d="M343.8,916.3h54.6v15H343.8v-15Z" class="g0"/>
<path fill-rule="evenodd" d="M398,916.3h63.1v15H398v-15Z" class="g0"/>
<path fill-rule="evenodd" d="M460.7,916.3h89.8v15H460.7v-15Z" class="g0"/>
<path fill-rule="evenodd" d="M550.2,916.3h22.4v15H550.2v-15Z" class="g0"/>
<path fill-rule="evenodd" d="M572.2,916.3H685.8v15H572.2v-15Z" class="g0"/>
<path fill-rule="evenodd" d="M685.5,916.3H779v15H685.5v-15Z" class="g0"/>
<path fill-rule="evenodd" d="M778.6,916.3h52.8v15H778.6v-15Z" class="g0"/>
<path fill-rule="evenodd" d="M831.1,916.3h63v15h-63v-15Z" class="g0"/>
<path fill-rule="evenodd" d="M121.2,931h73.3v15.7H121.2V931Z" class="g0"/>
<path fill-rule="evenodd" d="M194.2,931h85v15.7h-85V931Z" class="g0"/>
<path fill-rule="evenodd" d="M278.9,931h65.2v15.7H278.9V931Z" class="g0"/>
<path fill-rule="evenodd" d="M343.8,931h54.6v15.7H343.8V931Z" class="g0"/>
<path fill-rule="evenodd" d="M398,931h63.1v15.7H398V931Z" class="g0"/>
<path fill-rule="evenodd" d="M460.7,931h89.8v15.7H460.7V931Z" class="g0"/>
<path fill-rule="evenodd" d="M550.2,931h22.4v15.7H550.2V931Z" class="g0"/>
<path fill-rule="evenodd" d="M572.2,931H685.8v15.7H572.2V931Z" class="g0"/>
<path fill-rule="evenodd" d="M685.5,931H779v15.7H685.5V931Z" class="g0"/>
<path fill-rule="evenodd" d="M778.6,931h52.8v15.7H778.6V931Z" class="g0"/>
<path fill-rule="evenodd" d="M831.1,931h63v15.7h-63V931Z" class="g0"/>
<path fill-rule="evenodd" d="M38.3,946.4h83.2v13.5H38.3V946.4Z" class="g0"/>
<path fill-rule="evenodd" d="M121.2,946.4h73.3v13.5H121.2V946.4Z" class="g0"/>
<path fill-rule="evenodd" d="M194.2,946.4h85v13.5h-85V946.4Z" class="g0"/>
<path fill-rule="evenodd" d="M278.9,946.4h65.2v13.5H278.9V946.4Z" class="g0"/>
<path fill-rule="evenodd" d="M343.8,946.4h54.6v13.5H343.8V946.4Z" class="g0"/>
<path fill-rule="evenodd" d="M398,946.4h63.1v13.5H398V946.4Z" class="g0"/>
<path fill-rule="evenodd" d="M460.7,946.4h89.8v13.5H460.7V946.4Z" class="g0"/>
<path fill-rule="evenodd" d="M550.2,946.4h22.4v13.5H550.2V946.4Z" class="g0"/>
<path fill-rule="evenodd" d="M572.2,946.4H685.8v13.5H572.2V946.4Z" class="g0"/>
<path fill-rule="evenodd" d="M685.5,946.4H779v13.5H685.5V946.4Z" class="g0"/>
<path fill-rule="evenodd" d="M778.6,946.4h52.8v13.5H778.6V946.4Z" class="g0"/>
<path fill-rule="evenodd" d="M831.1,946.4h63v13.5h-63V946.4Z" class="g0"/>
<path fill-rule="evenodd" d="M38.3,959.6h83.2v13.5H38.3V959.6Z" class="g0"/>
<path fill-rule="evenodd" d="M121.2,959.6h73.3v13.5H121.2V959.6Z" class="g0"/>
<path fill-rule="evenodd" d="M194.2,959.6h85v13.5h-85V959.6Z" class="g0"/>
<path fill-rule="evenodd" d="M278.9,959.6h65.2v13.5H278.9V959.6Z" class="g0"/>
<path fill-rule="evenodd" d="M343.8,959.6h54.6v13.5H343.8V959.6Z" class="g0"/>
<path fill-rule="evenodd" d="M398,959.6h63.1v13.5H398V959.6Z" class="g0"/>
<path fill-rule="evenodd" d="M460.7,959.6h89.8v13.5H460.7V959.6Z" class="g0"/>
<path fill-rule="evenodd" d="M550.2,959.6h22.4v13.5H550.2V959.6Z" class="g0"/>
<path fill-rule="evenodd" d="M572.2,959.6H685.8v13.5H572.2V959.6Z" class="g0"/>
<path fill-rule="evenodd" d="M685.5,959.6H779v13.5H685.5V959.6Z" class="g0"/>
<path fill-rule="evenodd" d="M778.6,959.6h52.8v13.5H778.6V959.6Z" class="g0"/>
<path fill-rule="evenodd" d="M831.1,959.6h63v13.5h-63V959.6Z" class="g0"/>
<path fill-rule="evenodd" d="M278.9,972.8h65.2v15H278.9v-15Z" class="g0"/>
<path fill-rule="evenodd" d="M343.8,972.8h54.6v15H343.8v-15Z" class="g0"/>
<path fill-rule="evenodd" d="M398,972.8h63.1v15H398v-15Z" class="g0"/>
<path fill-rule="evenodd" d="M460.7,972.8h89.8v15H460.7v-15Z" class="g0"/>
<path fill-rule="evenodd" d="M550.2,972.8h22.4v15H550.2v-15Z" class="g0"/>
<path fill-rule="evenodd" d="M278.9,987.4h65.2v15.1H278.9V987.4Z" class="g0"/>
<path fill-rule="evenodd" d="M343.8,987.4h54.6v15.1H343.8V987.4Z" class="g0"/>
<path fill-rule="evenodd" d="M398,987.4h63.1v15.1H398V987.4Z" class="g0"/>
<path fill-rule="evenodd" d="M460.7,987.4h89.8v15.1H460.7V987.4Z" class="g0"/>
<path fill-rule="evenodd" d="M550.2,987.4h22.4v15.1H550.2V987.4Z" class="g0"/>
<path fill-rule="evenodd" d="M278.9,1002.1h65.2v15H278.9v-15Z" class="g0"/>
<path fill-rule="evenodd" d="M343.8,1002.1h54.6v15H343.8v-15Z" class="g0"/>
<path fill-rule="evenodd" d="M398,1002.1h63.1v15H398v-15Z" class="g0"/>
<path fill-rule="evenodd" d="M460.7,1002.1h89.8v15H460.7v-15Z" class="g0"/>
<path fill-rule="evenodd" d="M550.2,1002.1h22.4v15H550.2v-15Z" class="g0"/>
<path fill-rule="evenodd" d="M460.7,756.4h89.8v15.1H460.7V756.4Z" class="g0"/>
<path fill-rule="evenodd" d="M550.2,756.4h22.4v15.1H550.2V756.4Z" class="g0"/>
<path fill-rule="evenodd" d="M572.2,756.4H685.8v15.1H572.2V756.4Z" class="g0"/>
<path d="M40.2,841.3H335" class="g2"/>
<path d="M40.9,1132.7H464.7" class="g3"/>
<path fill-rule="evenodd" d="M38.7,24.9H894.1v1.5H38.7V24.9Z" class="g4"/>
<path fill-rule="evenodd" d="M38.7,134.6H894.1V136H38.7v-1.4Z" class="g4"/>
<path fill-rule="evenodd" d="M38.7,160.2H396.9v1.5H38.7v-1.5Z" class="g4"/>
<path fill-rule="evenodd" d="M398.4,160.2h286v1.5h-286v-1.5Z" class="g4"/>
<path fill-rule="evenodd" d="M685.9,160.2H894.1v1.5H685.9v-1.5Z" class="g4"/>
<path fill-rule="evenodd" d="M38.7,266.2H461.1v.7H38.7v-.7Z" class="g4"/>
<path fill-rule="evenodd" d="M460.4,298.1H892.7v.7H460.4v-.7Z" class="g4"/>
<path fill-rule="evenodd" d="M38.7,380.6h854v.7H38.7v-.7Z" class="g4"/>
<path fill-rule="evenodd" d="M38.7,475.9h854v.8H38.7v-.8Z" class="g4"/>
<path fill-rule="evenodd" d="M38.7,525.8h854v.7H38.7v-.7Z" class="g4"/>
<path fill-rule="evenodd" d="M38.7,538.3H279.2v.7H38.7v-.7Z" class="g4"/>
<path fill-rule="evenodd" d="M279.2,538.3H892.6v.7H279.2v-.7Z" class="g4"/>
<path fill-rule="evenodd" d="M38.7,563.2h854v.7H38.7v-.7Z" class="g4"/>
<path fill-rule="evenodd" d="M38.7,575.7H279.2v.7H38.7v-.7Z" class="g4"/>
<path fill-rule="evenodd" d="M279.2,575.7H892.6v.7H279.2v-.7Z" class="g4"/>
<path fill-rule="evenodd" d="M38.7,602.1H279.2v.7H38.7v-.7Z" class="g4"/>
<path fill-rule="evenodd" d="M279.2,602.1H892.6v.7H279.2v-.7Z" class="g4"/>
<path fill-rule="evenodd" d="M38.7,616.7h854v.8H38.7v-.8Z" class="g4"/>
<path fill-rule="evenodd" d="M460.4,629.2H892.7v.7H460.4v-.7Z" class="g4"/>
<path fill-rule="evenodd" d="M38.7,641.7h854v.7H38.7v-.7Z" class="g4"/>
<path fill-rule="evenodd" d="M38.7,654.1H685.9v.8H38.7v-.8Z" class="g4"/>
<path fill-rule="evenodd" d="M685.9,654.1H779v.8H685.9v-.8Z" class="g4"/>
<path fill-rule="evenodd" d="M779,654.1H892.7v.8H779v-.8Z" class="g4"/>
<path fill-rule="evenodd" d="M685.1,681.3H779v.7H685.1v-.7Z" class="g4"/>
<path fill-rule="evenodd" d="M685.1,696.7H779v.7H685.1v-.7Z" class="g4"/>
<path fill-rule="evenodd" d="M685.1,770.7H892.7v.8H685.1v-.8Z" class="g4"/>
<path fill-rule="evenodd" d="M685.1,785.4H892.7v.7H685.1v-.7Z" class="g4"/>
<path fill-rule="evenodd" d="M38.7,1028.9H685.9v1.4H38.7v-1.4Z" class="g4"/>
<path fill-rule="evenodd" d="M685.9,1028.9H894.1v1.4H685.9v-1.4Z" class="g4"/>
<path fill-rule="evenodd" d="M38.7,1104H550.6v.8H38.7v-.8Z" class="g4"/>
<path fill-rule="evenodd" d="M550.5,1104H779v.8H550.5v-.8Z" class="g4"/>
<path fill-rule="evenodd" d="M779,1104H892.7v.8H779v-.8Z" class="g4"/>
<path fill-rule="evenodd" d="M38.7,1211.1h854v1.5H38.7v-1.5Z" class="g4"/>
<path fill-rule="evenodd" d="M38,12.5h.7V24.9H38V12.5Z" class="g4"/>
<path fill-rule="evenodd" d="M37.2,24.9h1.5V134.6H37.2V24.9Z" class="g4"/>
<path fill-rule="evenodd" d="M37.2,134.6h1.5v25.6H37.2V134.6Z" class="g4"/>
<path fill-rule="evenodd" d="M37.2,160.2h1.5V617.5H37.2V160.2Z" class="g4"/>
<path fill-rule="evenodd" d="M38,617.5h.7v24.2H38V617.5Z" class="g4"/>
<path fill-rule="evenodd" d="M37.2,641.7h1.5v387.2H37.2V641.7Z" class="g4"/>
<path fill-rule="evenodd" d="M37.2,1028.9h1.5v183.7H37.2V1028.9Z" class="g4"/>
<path fill-rule="evenodd" d="M278.5,475.9h.7V727.5h-.7V475.9Z" class="g4"/>
<path fill-rule="evenodd" d="M278.5,727.5h.7v58.6h-.7V727.5Z" class="g4"/>
<path fill-rule="evenodd" d="M278.5,786.1h.7v14.7h-.7V786.1Z" class="g4"/>
<path fill-rule="evenodd" d="M278.5,800.8h.7v14.7h-.7V800.8Z" class="g4"/>
<path fill-rule="evenodd" d="M278.5,815.5h.7v13.2h-.7V815.5Z" class="g4"/>
<path fill-rule="evenodd" d="M396.9,135.3h1.5v26.4h-1.5V135.3Z" class="g4"/>
<path fill-rule="evenodd" d="M460.4,161.7h.7v315h-.7v-315Z" class="g4"/>
<path fill-rule="evenodd" d="M460.4,476.7h.7V642.4h-.7V476.7Z" class="g4"/>
<path fill-rule="evenodd" d="M684.4,135.3h1.4v26.4h-1.4V135.3Z" class="g4"/>
<path fill-rule="evenodd" d="M685.1,525.8h.8v77h-.8v-77Z" class="g4"/>
<path fill-rule="evenodd" d="M685.1,641.7h.8v13.2h-.8V641.7Z" class="g4"/>
<path fill-rule="evenodd" d="M685.1,654.9h.8v362.2h-.8V654.9Z" class="g4"/>
<path fill-rule="evenodd" d="M685.1,1017.1h.8v11.8h-.8v-11.8Z" class="g4"/>
<path fill-rule="evenodd" d="M778.2,641.7h.8v13.2h-.8V641.7Z" class="g4"/>
<path fill-rule="evenodd" d="M778.2,654.9h.8v362.2h-.8V654.9Z" class="g4"/>
<path fill-rule="evenodd" d="M778.2,1017.1h.8v11.8h-.8v-11.8Z" class="g4"/>
<path fill-rule="evenodd" d="M892.7,25.7h1.4V134.6h-1.4V25.7Z" class="g4"/>
<path fill-rule="evenodd" d="M892.7,135.3h1.4v24.9h-1.4V135.3Z" class="g4"/>
<path fill-rule="evenodd" d="M892.7,161h1.4v867.9h-1.4V161Z" class="g4"/>
<path fill-rule="evenodd" d="M892.7,1029.6h1.4v183h-1.4v-183Z" class="g4"/>
<image clip-path="url(#c0)" preserveAspectRatio="none" x="144" y="33" width="69" height="58" href="{{ public_path('si_lcl/1/img/1.jpg') }}"/>
</svg>